<?xml version="1.0" encoding="UTF-8"?>
<svg id="Layer_1" data-name="Layer 1" xmlns="http://www.w3.org/2000/svg" viewBox="0 0 800 800">
  <defs>
    <style>
      .cls-1 {
        fill: #fff;
      }

      .cls-2 {
        fill: #3c47d0;
        fill-rule: evenodd;
      }
    </style>
  </defs>
  <rect class="cls-1" x="76.13" y="96" width="678.01" height="617.83"/>
  <g>
    <path class="cls-2" d="m327.38,269.97c-6.23,25.08-44.12,169.75-44.12,169.75h92.75s-41.25-144.67-47.41-169.75h-1.22Z"/>
    <path class="cls-2" d="m0,0v800h800V0H0Zm422.02,618.2l-32.4-107.45h-119.9l-30.02,107.45h-98.24l128.26-419.01h124.17l129.91,419.01h-101.78Zm233.41,0h-94.64v-303.87h94.64v303.87h0Zm-47.9-341.27c-29.78,0-49.79-21.24-49.12-47.23-.67-27.4,19.34-47.9,49.85-47.9s49.55,20.5,50.28,47.9c0,25.99-19.77,47.23-51.01,47.23Z"/>
  </g>
</svg>