<?xml version="1.0" encoding="UTF-8"?>
<svg id="Layer_1" data-name="Layer 1" xmlns="http://www.w3.org/2000/svg" viewBox="0 0 800 800">
  <defs>
    <style>
      .cls-1 {
        fill: none;
      }

      .cls-2 {
        fill: #fff;
      }

      .cls-3 {
        fill: #3c47d0;
      }
    </style>
  </defs>
  <rect class="cls-1" x="0" y="0" width="800" height="800"/>
  <g>
    <rect class="cls-3" width="800" height="800"/>
    <path class="cls-2" d="m426.67,195l-130,213.33,138.33,226.67c1.22,1.37,1.82,3.18,1.67,5-1.67,1.67-3.33,0-5,0h-98.33c-8.33,0-11.67,0-15-5l-28.33-53.33c-8.33-18.33-18.33-35-28.33-55s-21.67-36.67-31.67-55h0l-30,55c-10,18.33-20,36.67-28.33,55l-30,55c-2,3.55-5.96,5.53-10,5H36.67c-1.67,0-3.33,0-3.33-1.67-.15-1.82.45-3.63,1.67-5l133.33-220L38.33,195v-5h106.67l5,5c8.33,18.33,16.67,36.67,26.67,55s20,36.67,31.67,55,20,36.67,28.33,55h1.67c8.33-20,18.33-38.33,26.67-56.67l30-53.33c10-18.33,20-36.67,28.33-55l3.33-3.33h96.67l5,3.33v3.33l-1.67-3.33Zm265,448.33c23.86-4.68,47.27-11.37,70-20,3.28-1.42,5.29-4.77,5-8.33,0-6.67-1.67-15-1.67-25s-1.67-16.67-1.67-25V155h0c0-1.84-1.49-3.33-3.33-3.33h-88.33c-1.67,0-3.33,1.67-3.33,5v136.67h-23.33c-37.65-1.01-74.93,7.6-108.33,25-28.17,15.92-51.72,38.9-68.33,66.67-16.65,27.59-24.77,59.48-23.33,91.67-1.59,34.32,6.5,68.39,23.33,98.33,16.17,23.98,38.67,43.02,65,55,28.73,13.28,60.02,20.11,91.67,20,22.36-.48,44.65-2.71,66.67-6.67Zm-40-78.33h-16.67c-12.55.36-25.04-1.91-36.67-6.67-10.96-2.43-20.88-8.27-28.33-16.67-8.84-7.71-15.69-17.43-20-28.33-5.48-14.33-7.76-29.69-6.67-45-1.35-19.27,3.3-38.49,13.33-55,9.28-13.55,21.91-24.46,36.67-31.67,14.85-7.97,31.49-11.98,48.33-11.67h26.67v193.33l-16.67,1.67Z"/>
  </g>
</svg>