<?xml version="1.0" encoding="UTF-8"?>
<svg id="Capa_1" data-name="Capa 1" xmlns="http://www.w3.org/2000/svg" viewBox="0 0 703.54 800">
  <defs>
    <style>
      .cls-1 {
        fill: #fff;
      }

      .cls-2 {
        fill: #3c47d0;
      }
    </style>
  </defs>
  <rect class="cls-1" x="92.01" y="88.37" width="523.58" height="583.07"/>
  <path class="cls-2" d="m677.47,0H26.04C10.44,0-1.27,13.2.11,28.81l59.5,666.76c1.38,15.59,14.86,31.91,29.99,36.12l234.56,65.15c15.1,4.19,39.79,4.21,54.92.05l234.85-65.06c15.13-4.2,28.61-20.37,29.99-35.99L703.43,28.81c1.38-15.6-10.28-28.81-25.96-28.81Zm-112.97,240.68c-.01.1-.09.18-.19.2-.1.02-.2-.04-.24-.13l-183.77,75.31c-2.62,1.07-4.11,3.85-3.57,6.62.55,2.78,2.98,4.78,5.81,4.78h142.94c7.6,0,14.85,3.23,19.93,8.88,5.08,5.65,7.53,13.2,6.72,20.76l-22.33,209.51c-1.1,10.28-8,19.01-17.76,22.44l-151.72,53.38c-5.71,2.01-11.94,2.03-17.67.04l-151.01-52.31c-9.81-3.4-16.78-12.16-17.88-22.48l-10.12-94.89c-.53-4.98,1.08-9.95,4.43-13.68,3.35-3.73,8.12-5.85,13.13-5.85h42.02c9.03,0,16.6,6.81,17.56,15.79l6.21,58.32,104.56,36.35,105.04-36.68,12.85-120.96H172.44c-9,0-16.56-6.77-17.55-15.72l-5.65-51.27c-.86-7.82,3.55-15.27,10.82-18.26l190.08-78.37c2.16-.89,3.38-3.17,2.93-5.46-.45-2.29-2.46-3.93-4.79-3.93h-200.13c-6.03,0-11.08-4.55-11.71-10.54l-5.79-55.1c-.35-3.32.73-6.63,2.96-9.1,2.23-2.48,5.41-3.89,8.75-3.89h418.75c3.35,0,6.55,1.43,8.78,3.93,2.23,2.5,3.29,5.84,2.91,9.17l-8.3,73.14Z"/>
</svg>