<?xml version="1.0" encoding="UTF-8"?>
<svg id="Layer_1" data-name="Layer 1" xmlns="http://www.w3.org/2000/svg" viewBox="0 0 565.1 640.9">
  <defs>
    <style>
      .cls-1 {
        fill: #fff;
      }

      .cls-2 {
        fill: #3c47d0;
      }
    </style>
  </defs>
  <rect class="cls-1" x="50.57" y="40.41" width="448" height="486"/>
  <path class="cls-2" d="m.02,0l51.43,576.83,230.77,64.07,231.4-64.15L565.1.03H0l.02-.03Zm213.2,149.38l-10.23,111.02,241.77.03-1.73,19-16.63,186.25-1.05,11.95-145.1,40.22-144.9-40.22-9.9-111.08h71l5.05,56.42,78.85,21.25,78.9-21.3,8.2-91.75-241.77-.02,1.73-19,16.62-186.25,5.22-52.15h282.17l3.28,39.95,10.07,111.33h-71.02l-6.55-73.05-72.22-4.35h-12.88v-.1l-68.88,1.85h-.02Z"/>
</svg>